<svg xmlns="http://www.w3.org/2000/svg" viewBox="0 0 748.93 244.8"><defs><style>.cls-1{fill:#f28526;}.cls-2{fill:#732fa6;}.cls-3{fill:#282828;}.cls-4{fill:#030015;}</style></defs><g id="Calque_2" data-name="Calque 2"><g id="Main"><g id="logo-new"><g id="light"><g id="Purple_Bar" data-name="Purple Bar"><rect class="cls-1" x="160.51" y="68.1" width="5.7" height="135.3" transform="translate(-7.49 9.55) rotate(-3.28)"/><path class="cls-2" d="M164.2,65.9l-4,.2-1.7.1-4,.2.2,4,7.5,131.1.2,4,4-.2,1.7-.1,4-.2-.2-4L164.4,69.9l-.2-4Z"/></g><path id="Orange_Bar" data-name="Orange Bar" class="cls-1" d="M735.8,101.2,465.1,117.6a13.92,13.92,0,0,1-14.8-13.1L449.5,91a13.92,13.92,0,0,1,13.1-14.8L733.3,59.8a13.92,13.92,0,0,1,14.8,13.1l.8,13.5A14,14,0,0,1,735.8,101.2Z"/><g id="Letters"><path class="cls-3" d="M195.5,6.4,158.3,8.6l.5,7.9-4.7.3-.7-12.6,45.1-2.5L294,180l37.4-87,49.8,82.2,21.9-53.6,68-3.9.2-3.9a61.21,61.21,0,0,1,57.6-58c1.2-.1,2.4-.1,3.5-.1,29.3,0,52.2,20.6,57,51.3l.6,3.9,21.4-1.2.2-3.9a61.52,61.52,0,0,1,57.6-58c1.1-.1,2.3-.1,3.4-.1,31.4,0,55.7,24.2,57.8,57.5v2.3L616.2,114l.9,4.8a56.69,56.69,0,0,0,55.7,46.4c1,0,2.1,0,3.1-.1h.9l.1.2a56.3,56.3,0,0,0,36.8-17.6l.9-1,3.7,2.8-1.1,1.2a61.39,61.39,0,0,1-35.4,18.7,58.24,58.24,0,0,1-9.3.7,61.31,61.31,0,0,1-60.5-52l-.6-4-128.3,7.3-5.7.6-1.9.1.9,4.8a56.6,56.6,0,0,0,96.9,28.7l.9-1,3.7,2.8-1.1,1.2a60.93,60.93,0,0,1-35.4,18.8,58.24,58.24,0,0,1-9.3.7,61.69,61.69,0,0,1-60.5-51.9l-.6-4L406,126l-24.1,60.8L332,103.9l-38.1,88.3ZM532.3,60.3c-1.1,0-2.1,0-3.2.1a57.22,57.22,0,0,0-53.1,52l-.4,5,109.9-6.3-.9-4.8C579.7,78.8,558.7,60.3,532.3,60.3Zm140.4-8.2c-1,0-2.1,0-3.2.1-28,1.8-50.9,24.1-53.1,52l-.4,5,109.8-6.3-.8-4.8C720,70.6,699,52.1,672.7,52.1Z"/><path class="cls-3" d="M197.7,3.1l96.4,180.4,37.5-87.2,49.8,82.3,22.7-55.5,68.4-3.9.3-5.2A59.86,59.86,0,0,1,529,57.4c1.2-.1,2.3-.1,3.4-.1,28.2,0,50.9,20.1,55.6,50l.8,5.2,24.1-1.4.3-5.2a60.09,60.09,0,0,1,56.2-56.6c1.1-.1,2.2-.1,3.3-.1,30.2,0,54.2,23.6,56.3,56.1v.8l-114.5,6.5,1.2,6.5a58.35,58.35,0,0,0,57.2,47.6c1.1,0,2.1,0,3.2-.1,0,0,.1,0,0,.2a58.26,58.26,0,0,0,38.8-18.1l1.3,1a58.91,58.91,0,0,1-34.5,18.2,55.79,55.79,0,0,1-9.1.7A59.68,59.68,0,0,1,637.3,157a59,59,0,0,1-23.7-39.1l-.8-5.3L483.1,120l-5.8.6-3.5.2,1.2,6.5a58.11,58.11,0,0,0,99.5,29.4l1.3,1A59.31,59.31,0,0,1,541.3,176a56.65,56.65,0,0,1-9.1.7,59.88,59.88,0,0,1-59-50.6l-.8-5.3-67.3,3.9-23.3,58.9L332,100.8l-38,88.1L196.4,4.8,156.7,7.1l.5,7.9-1.7.1L155,5.5l42.7-2.4M614.3,110.8l113.2-6.5-1.1-6.5c-5-28.2-26.8-47.2-53.7-47.2-1.1,0-2.2,0-3.3.1a58.55,58.55,0,0,0-54.5,53.4l-.6,6.7M473.9,119l113.3-6.5L586,106c-5-28.3-26.8-47.2-53.7-47.2-1.1,0-2.2,0-3.3.1a58.64,58.64,0,0,0-54.5,53.4l-.6,6.7M199.4,0l-1.9.1L154.8,2.5l-3,.2.2,3,.5,9.6.2,3,3-.2,1.7-.1,3-.2-.2-3-.3-4.9,34.8-2,96.7,182.4,2.9,5.5,2.5-5.7,35.7-82.7,46.8,77.8,3.1,5.2,2.2-5.6,22.6-57.1,62.7-3.6.4,2.6a62.94,62.94,0,0,0,62,53.2A61.94,61.94,0,0,0,578.1,160l2.2-2.4-2.6-2-1.3-1-2.2-1.7-1.9,2a55.11,55.11,0,0,1-40.2,17.3,54.52,54.52,0,0,1-33.4-11.3A55.5,55.5,0,0,1,477.9,127l-.6-3.2h.3l5.7-.6L610.2,116l.4,2.6a62.73,62.73,0,0,0,107.8,33.5l2.2-2.4-2.6-2-1.3-1-2.1-1.7-1.9,2a55.25,55.25,0,0,1-34.9,17h-1.9c-1,.1-2,.1-3,.1A55.29,55.29,0,0,1,618.6,119l-.6-3.2,111.1-6.3,2.8-.2v-3.8c-1-16.4-7.6-31.4-18.4-42.2a57.57,57.57,0,0,0-40.8-16.7c-1.2,0-2.3,0-3.5.1a63,63,0,0,0-59,59.4l-.1,2.5-18.7,1.1-.4-2.9c-2.4-15.3-9.3-28.5-19.9-38a57,57,0,0,0-38.6-14.6c-1.2,0-2.4,0-3.6.1a62.71,62.71,0,0,0-59,59.4l-.1,2.5-65.7,3.7-1.9.1-.7,1.8-20.4,50L334.4,94.6l-3-5L329.1,95l-35,81.5L200.3,1.7,199.4,0ZM617.6,107.6l.3-3.2a55.56,55.56,0,0,1,51.7-50.7c1-.1,2-.1,3.1-.1,25.6,0,46,18,50.8,44.7l.5,3.2-106.4,6.1Zm-140.4,8.2.3-3.2a55.72,55.72,0,0,1,51.7-50.7c1-.1,2.1-.1,3.1-.1,25.6,0,46,18,50.8,44.7l.6,3.2-106.5,6.1Z"/><polygon class="cls-4" points="8.7 234.9 1.6 111.2 125.4 189.8 117 42.8 173.6 39.5 173.9 44.2 122 47.2 130.7 198.2 6.8 119.6 13.4 234.9 8.7 234.9"/><path class="cls-4" d="M172.2,41.1l.1,1.7-51.9,3L129,195.4,5.1,116.8l6.7,116.6H10.1L3.3,114l123.8,78.6L118.6,44.2l53.6-3.1m2.8-3.2-3,.2-53.6,3.1-3,.2.2,3L123.8,187,4.9,111.5,0,108.4l.3,5.8L7.1,233.6l.2,2.8H15l-.2-3.2L8.4,122.4l119,75.5,4.9,3.1-.3-5.8L123.6,48.6l48.9-2.8,3-.2-.2-3-.1-1.7-.2-3Z"/><polygon class="cls-3" points="1.6 111.2 125.5 189.8 117.1 42.8 173.6 39.5 173.9 44.2 122 47.2 130.7 198.2 6.8 119.6 13.4 234.7 8.7 235 1.6 111.2"/><path class="cls-3" d="M172.2,41.1l.1,1.7-51.9,3L129,195.4,5.1,116.8l6.7,116.5-1.7.1L3.3,114l123.9,78.6L118.7,44.2l53.5-3.1m2.8-3.2-3,.2-53.5,3.1-3,.2.2,3L123.9,187,4.9,111.5,0,108.4l.3,5.8L7.1,233.6l.2,3,3-.2,1.7-.1,3-.2-.2-3L8.4,122.4l119,75.5,4.9,3.1-.3-5.8L123.6,48.6l48.9-2.8,3-.2-.2-3-.1-1.7-.2-3Z"/></g><g id="Productions"><path class="cls-3" d="M468.5,209.4h6.9a43.8,43.8,0,0,1,8,.5,9.26,9.26,0,0,1,4.9,3,8.36,8.36,0,0,1,1.9,5.7,8.3,8.3,0,0,1-6.9,8.7,42.34,42.34,0,0,1-8.8.6H472V244h-3.5Zm3.5,3.4v11.8l5.9.1a16.29,16.29,0,0,0,5.2-.6,4.91,4.91,0,0,0,2.6-2.1,6.14,6.14,0,0,0,0-6.4,5.09,5.09,0,0,0-2.5-2.1,15.18,15.18,0,0,0-5.1-.6l-6.1-.1Z"/><path class="cls-3" d="M495.3,218.4h3.4v3.7a11.25,11.25,0,0,1,3.2-3.3,6.56,6.56,0,0,1,3.5-1.1,5.73,5.73,0,0,1,2.9.9l-1.7,2.8a4.49,4.49,0,0,0-1.7-.4,4.85,4.85,0,0,0-3.2,1.4,8.41,8.41,0,0,0-2.3,4.2,41.52,41.52,0,0,0-.6,8.9v8.7h-3.4V218.4Z"/><path class="cls-3" d="M523.2,217.7A12.47,12.47,0,0,1,533,222a13.15,13.15,0,0,1,3.5,9.3,13.31,13.31,0,0,1-3.7,9.4,12.46,12.46,0,0,1-9.6,4,12.68,12.68,0,0,1-9.7-4,13.82,13.82,0,0,1-.2-18.6A13.06,13.06,0,0,1,523.2,217.7Zm0,3.3a9.76,9.76,0,0,0-7.1,3,10.11,10.11,0,0,0-3,7.4,10.3,10.3,0,0,0,1.3,5.2,9.85,9.85,0,0,0,3.6,3.7,10.27,10.27,0,0,0,10,0,9.85,9.85,0,0,0,3.6-3.7,10.79,10.79,0,0,0-1.7-12.6A8.19,8.19,0,0,0,523.2,221Z"/><path class="cls-3" d="M568.3,208.5v35.6H565v-4.4a14.09,14.09,0,0,1-4.7,3.8,13.16,13.16,0,0,1-5.6,1.3,12.42,12.42,0,0,1-9.3-4,13.64,13.64,0,0,1,0-19.1,12.76,12.76,0,0,1,9.4-3.9,12,12,0,0,1,5.7,1.3,13,13,0,0,1,4.5,4V208.5Zm-13.2,12.4a10.3,10.3,0,0,0-5.1,1.4,9.66,9.66,0,0,0-3.7,3.8,10.67,10.67,0,0,0-1.4,5.2,11,11,0,0,0,1.4,5.2,11.52,11.52,0,0,0,3.7,3.9,9.93,9.93,0,0,0,5,1.4,10.3,10.3,0,0,0,5.1-1.4,8.8,8.8,0,0,0,3.7-3.7,11.54,11.54,0,0,0,1.3-5.3,10.26,10.26,0,0,0-2.9-7.4A8.9,8.9,0,0,0,555.1,220.9Z"/><path class="cls-3" d="M575.4,218.4h3.3v12a25.73,25.73,0,0,0,.5,6,6.8,6.8,0,0,0,2.7,3.7,8.25,8.25,0,0,0,4.8,1.4,7.89,7.89,0,0,0,4.7-1.3,7.11,7.11,0,0,0,2.7-3.5,26.38,26.38,0,0,0,.5-6.3v-12H598V231a20.67,20.67,0,0,1-1.2,8,9.46,9.46,0,0,1-3.7,4.2,11.86,11.86,0,0,1-6.2,1.5,12.24,12.24,0,0,1-6.3-1.5,8.9,8.9,0,0,1-3.7-4.2c-.8-1.8-1.2-4.5-1.2-8.2V218.4Z"/><path class="cls-3" d="M630.1,223.7l-2.6,1.6a11,11,0,0,0-9.3-4.5,10.87,10.87,0,0,0-7.8,3,9.76,9.76,0,0,0-3.1,7.3,11,11,0,0,0,1.4,5.3,10.17,10.17,0,0,0,3.9,3.8,11.34,11.34,0,0,0,5.6,1.4,11.18,11.18,0,0,0,9.2-4.5l2.6,1.7a12.76,12.76,0,0,1-4.9,4.3,16.11,16.11,0,0,1-7.1,1.5,13.88,13.88,0,0,1-10.1-3.9,12.48,12.48,0,0,1-4-9.4,12.81,12.81,0,0,1,1.9-6.9,13.18,13.18,0,0,1,5.2-5,14.9,14.9,0,0,1,7.3-1.8,16.22,16.22,0,0,1,4.9.8,13.61,13.61,0,0,1,4,2A13,13,0,0,1,630.1,223.7Z"/><path class="cls-3" d="M639.3,208.9h3.3v9.5h5.2v2.9h-5.2v22.8h-3.3V221.3h-4.5v-2.9h4.5Z"/><path class="cls-3" d="M653.9,207.8a2.56,2.56,0,0,1,1.9.8,2.69,2.69,0,1,1-4.6,1.9,2.56,2.56,0,0,1,.8-1.9A2.73,2.73,0,0,1,653.9,207.8Zm-1.6,10.6h3.3v25.7h-3.3Z"/><path class="cls-3" d="M674.6,217.7a12.47,12.47,0,0,1,9.8,4.3,13.15,13.15,0,0,1,3.5,9.3,13.31,13.31,0,0,1-3.7,9.4,12.46,12.46,0,0,1-9.6,4,12.68,12.68,0,0,1-9.7-4,13.82,13.82,0,0,1-.2-18.6A12.76,12.76,0,0,1,674.6,217.7Zm0,3.3a9.76,9.76,0,0,0-7.1,3,10.11,10.11,0,0,0-3,7.4,10.3,10.3,0,0,0,1.3,5.2,9.85,9.85,0,0,0,3.6,3.7,10.27,10.27,0,0,0,10,0,9.85,9.85,0,0,0,3.6-3.7,10.79,10.79,0,0,0-1.7-12.6A8.32,8.32,0,0,0,674.6,221Z"/><path class="cls-3" d="M694.1,218.4h3.3V223a13.71,13.71,0,0,1,4.4-4,10.3,10.3,0,0,1,5.2-1.3,9.08,9.08,0,0,1,8.4,5.4,20.91,20.91,0,0,1,1.1,7.7V244h-3.3V231.8a25.23,25.23,0,0,0-.4-5.9,6.25,6.25,0,0,0-2.2-3.8,6.39,6.39,0,0,0-4.2-1.3,8.39,8.39,0,0,0-5.4,2,9.2,9.2,0,0,0-3.1,4.9,34.87,34.87,0,0,0-.5,7v9.4h-3.3V218.4Z"/><path class="cls-3" d="M736.4,221.2l-2.1,2.2c-1.8-1.7-3.5-2.6-5.2-2.6a4.11,4.11,0,0,0-2.8,1.1,3.07,3.07,0,0,0-1.1,2.5,4,4,0,0,0,.9,2.4,12.21,12.21,0,0,0,4,2.7,14.58,14.58,0,0,1,5,3.7,6.39,6.39,0,0,1,1.3,4,7.32,7.32,0,0,1-2.2,5.4,7.46,7.46,0,0,1-5.6,2.2,8.68,8.68,0,0,1-4.2-1,7.91,7.91,0,0,1-3.3-2.7l2.1-2.4c1.7,1.9,3.5,2.9,5.4,2.9a4.67,4.67,0,0,0,3.4-1.3,3.89,3.89,0,0,0,1.4-3,3.84,3.84,0,0,0-.9-2.5,15,15,0,0,0-4.2-2.7,13.83,13.83,0,0,1-4.7-3.5,7.07,7.07,0,0,1-1.3-4,6.67,6.67,0,0,1,7-6.8C731.7,217.7,734,218.9,736.4,221.2Z"/></g></g></g></g></g></svg>